<svg width="4393" height="675" xmlns="http://www.w3.org/2000/svg" xmlns:xlink="http://www.w3.org/1999/xlink">
  <defs>
    <linearGradient x1="50%" y1="144.005%" x2="55.024%" y2="-18.348%" id="b">
      <stop stop-color="#214E82" offset="0%"/>
      <stop stop-color="#205084" offset="3.019%"/>
      <stop stop-color="#146C9D" offset="51.397%"/>
      <stop stop-color="#0197C5" offset="100%"/>
    </linearGradient>
    <path d="M65 244v74h98c15.5 0 17 1.5 17 17.5V357c0 16-1.5 17.5-17 17.5H65v90h102.5c15.5 0 17 1.5 17 17.5v21.5c0 16-1.5 17.5-17 17.5H17c-15.5 0-17-1.5-17-17.5V205c0-16 1.5-17.5 17-17.5h150.5c15.5 0 17 1.5 17 17.5v21.5c0 16-1.5 17.5-17 17.5H65zm284 53.5c72.5 0 123 47 123 115C472 481 421 528 347 528c-72.5 0-122.5-47.5-122.5-117 0-66 52-113.5 124.5-113.5zm-.5 54.5c-34.5 0-61.5 27-61.5 61.5 0 32.5 28 60 61.5 60s61-27 61-60.5-27.5-61-61-61zM655 334l-7.5 8.5c-7 8.5-8 9-12.5 9-2.5 0-2.5 0-17.5-7.5-3.5-2-10-3-16-3-14 0-24 7.5-24 18.5 0 9.5 7 14.5 34.5 24 24 8.5 32 12 42 19 16 11.5 24 28 24 48 0 45.5-37.5 77.5-91 77.5-23.5 0-47.5-8-67-22.5-7.5-5.5-11-10-11-14.5 0-3.5.5-4.5 7-12l9-10.5c7-8.5 8-9 12.5-9 3.5 0 3.5 0 14.5 9 8.5 7 24 12 36 12 15.5 0 27.5-10.5 27.5-24 0-12.5-6-17-33.5-27-27-10-32-12-41.5-19-14.5-10-21.5-25-21.5-45 0-40.5 31.5-69 77.5-69 32.5 0 65 13 65 25.5 0 3-1 5.5-6.5 12zm265.5-17.5h141V205c0-16 1.5-17.5 17-17.5h31c15.5 0 17 1.5 17 17.5v299c0 15.5-1.5 17-17 17h-31c-15.5 0-17-1.5-17-17V373h-141v131c0 15.5-1.5 17-17 17h-31c-15.5 0-17-1.5-17-17V205c0-16 1.5-17.5 17-17.5h31c15.5 0 17 1.5 17 17.5v111.5zm468 106H1244c1.5 37.5 20 58 53 58 20 0 37-8 46.5-22 3.5-4.5 5.5-6 9.5-6 1.5 0 1.5 0 8.5 1l22 3.5c12 2 15.5 4.5 15.5 11s-8 19-17.5 28.5c-21.5 21-49.5 31.5-83.5 31.5-70 0-116-45.5-116-115 0-70 44.5-115.5 113.5-115.5 50.5 0 88 24.5 103 67 4.5 13.5 7.5 30 7.5 43.5 0 12.5-2.5 14.5-17.5 14.5zM1246 384h102.5c-6.5-28-24.5-43-51.5-43s-45.5 16-51 43zm372.5 120v-11c-19.5 24.5-41 35-71 35-61 0-106.5-49.5-106.5-115.5 0-65 46-115 105.5-115 29.5 0 51 10.5 72 35v-11c0-15.5 1.5-17 17-17h26c16 0 17.5 1.5 17.5 17V504c0 15.5-1.5 17-17.5 17h-26c-15.5 0-17-1.5-17-17zm-54-152c-34 0-61 27-61 60.5s27 61 60.5 61c34.5 0 60.5-27 60.5-61.5 0-33-27-60-60-60zm233-188.5V504c0 15.5-1.5 17-17 17H1754c-15.5 0-17-1.5-17-17V163.5c0-15.5 1.5-17 17-17h26.5c15.5 0 17 1.5 17 17zm119 193.5v147c0 15.5-1.5 17-17 17H1873c-15.5 0-17-1.5-17-17V357h-7c-15.5 0-17-1.5-17-17.5V322c0-16 1.5-17.5 17-17.5h7V248c0-16 1.5-17.5 17-17.5h26.5c15.5 0 17 1.5 17 17.5v56.5h25.5c16 0 17.5 1.5 17.5 17.5v17.5c0 16-1.5 17.5-17.5 17.5h-25.5zM2055 163.5v169c19-25 38.5-35 68-35 25.5 0 48.5 9.5 63 26.5 12.5 15 17 30.5 17 61v119c0 15.5-1.5 17-17 17h-26.5c-15.5 0-17-1.5-17-17V402.5c0-18.5-1.5-28.5-6-36-6-10.5-19.5-17.5-35.5-17.5-31 0-46 19.5-46 61v94c0 15.5-1.5 17-17 17h-26.5c-15.5 0-17-1.5-17-17V163.5c0-15.5 1.5-17 17-17h26.5c15.5 0 17 1.5 17 17zm456 50.5v34c0 13.5-2 17.5-7.5 17.5-3 0-3 0-18.5-10.5-15-10-34-15.5-53-15.5-64 0-111.5 49.5-111.5 116C2320.5 420 2368 469 2430 469c26 0 46-6.5 68-22 2-1.5 4.5-2.5 6-2.5 5.5 0 7 4 7 17.5v33.5c0 10.5-.5 12-3.5 14.5-1 1-2 1.5-4.5 2.5-25 11-48.5 16-73.5 16-98.5 0-176-76-176-172.5 0-98 78.5-176 176.5-176 26.5 0 66.5 10 77.5 19.5 3 2.5 3.5 4 3.5 14.5zm111.5-50.5v169c19-25 38.5-35 68-35 25.5 0 48.5 9.5 63 26.5 12.5 15 17 30.5 17 61v119c0 15.5-1.5 17-17 17H2727c-15.5 0-17-1.5-17-17V402.5c0-18.5-1.5-28.5-6-36-6-10.5-19.5-17.5-35.5-17.5-31 0-46 19.5-46 61v94c0 15.5-1.5 17-17 17H2579c-15.5 0-17-1.5-17-17V163.5c0-15.5 1.5-17 17-17h26.5c15.5 0 17 1.5 17 17zm401 259H2879c1.5 37.5 20 58 53 58 20 0 37-8 46.5-22 3.5-4.5 5.5-6 9.5-6 1.5 0 1.5 0 8.5 1l22 3.5c12 2 15.5 4.5 15.5 11s-8 19-17.5 28.5c-21.5 21-49.5 31.5-83.5 31.5-70 0-116-45.5-116-115 0-70 44.5-115.5 113.5-115.5 50.5 0 88 24.5 103 67 4.5 13.5 7.5 30 7.5 43.5 0 12.5-2.5 14.5-17.5 14.5zM2881 384h102.5c-6.5-28-24.5-43-51.5-43s-45.5 16-51 43zm369-60v20.5c0 13.5-1.5 17.5-7 17.5-1.5 0-3.5-.5-6-1.5-13.5-6.5-22.5-8.5-35-8.5-37 0-63.5 25.5-63.5 61 0 35 26.5 60.5 62.5 60.5 12 0 25.5-3 35.5-7.5 2.5-1.5 5-2 6.5-2 5 0 7 4.5 7 17v20c0 11-.5 12-3.5 15-7.5 6-33.5 12-52 12-67 0-118.5-49.5-118.5-114 0-66 51.5-116.5 119-116.5 20 0 44.5 6 51.5 12 3 2.5 3.5 4 3.5 14.5zm108 59.5l73-71 3-3.5c4.5-4.5 4.5-4.5 16-4.5h38c12.5 0 17 2.5 17 10.5 0 3.5-2 6-8 12l-77.5 72.5 89 99c6.5 7 7.5 9 7.5 12.5 0 7.5-4.5 10-17.5 10h-41c-12 0-12 0-16.5-5.5l-3-3-73.5-84.5-6.5 6.5V504c0 15.5-1.5 17-17 17h-26.5c-15.5 0-17-1.5-17-17V163.5c0-15.5 1.5-17 17-17h26.5c15.5 0 17 1.5 17 17v220z" id="a"/>
    <linearGradient x1="21.616%" y1="11.027%" x2="93.478%" y2="106.958%" id="d">
      <stop stop-color="#214E82" offset="0%"/>
      <stop stop-color="#146C9D" offset="45.273%"/>
      <stop stop-color="#0197C5" offset="100%"/>
    </linearGradient>
    <path d="M498.94 639.554c-10.88-19.852-38.365-33.158-64.886-33.158-10.604 0-10.404-14.681 0-14.681 27.51 0 51.2-14.682 64.886-35.407 13.687-20.724 37.125-34.439 63.855-34.439 42.248 0 76.49 34.219 76.49 76.425 0 42.216-34.242 76.424-76.49 76.424-15.853 0-30.58-4.803-42.784-13.042-12.203-8.24-20.42-20.933-21.07-22.122zM.187 598.294c0-42.206 34.242-76.425 76.5-76.425s76.51 34.219 76.51 76.425c0 42.216-34.252 76.424-76.51 76.424S.187 640.51.187 598.294m205.23-240.53c-27.509 0-51.22 14.682-64.896 35.407-13.676 20.724-37.125 34.428-63.834 34.428-42.269 0-76.5-34.208-76.5-76.424 0-42.206 34.231-76.425 76.5-76.425 15.832 0 30.56 4.814 42.763 13.053 8.542 5.76 15.474 13.484 21.07 22.122 13.477 21.755 37.388 33.158 64.897 33.158 27.499 0 51.4-10.815 64.886-32.58 13.55-21.428 37.303-35.753 64.55-35.753 42.247 0 76.489 34.219 76.489 76.425 0 42.216-34.242 76.424-76.49 76.424-27.246 0-51-14.334-64.549-35.753-13.486-21.754-37.387-34.082-64.886-34.082zM309.006 85.13c-1.505 0-2.883-.116-4.366-.169-4.208-1.177-7.364-4.865-7.364-9.448 0-5.496 4.471-9.962 9.983-9.962 161.931 0 188.052-20.294 216.424-45.927C537.663 6.003 554.906.16 575.356.16c42.237 0 76.49 34.219 76.49 76.424 0 42.217-34.253 76.425-76.49 76.425-19.64 0-37.45-7.43-50.947-19.61-33.264-32.286-57.375-48.27-215.403-48.27zM76.676.159c15.854 0 30.581 4.814 42.774 13.054 8.542 5.759 15.474 13.473 21.081 22.122 13.476 21.765 38.366 33.157 64.886 33.157 10.594 0 10.404 14.682 0 14.682-27.509 0-51.41 13.652-64.886 35.406-13.686 20.714-37.135 34.429-63.855 34.429-42.247 0-76.49-34.208-76.49-76.425C.187 34.38 34.43.16 76.677.16z" id="c"/>
  </defs>
  <g fill="none" fill-rule="evenodd">
    <use fill="#000" xlink:href="#a"/>
    <use fill="url(#b)" xlink:href="#a"/>
    <g transform="translate(3741)">
      <use fill="url(#d)" transform="matrix(1 0 0 -1 0 674.878)" xlink:href="#c"/>
    </g>
  </g>
</svg>
